<?xml version="1.0" encoding="utf-8" ?>
<svg baseProfile="tiny" height="181px" version="1.2" width="204px" xmlns="http://www.w3.org/2000/svg" xmlns:ev="http://www.w3.org/2001/xml-events" xmlns:xlink="http://www.w3.org/1999/xlink"><defs /><path d="M 65,91 L 65,108 L 66,109 L 88,109 L 89,108 L 89,102 L 90,101 L 95,101 L 96,102 L 97,102 L 97,101 L 98,100 L 97,99 L 97,91 Z" fill="#E63946" /><path d="M 128,73 L 127,74 L 127,75 L 126,76 L 126,80 L 124,82 L 123,82 L 122,83 L 121,83 L 120,84 L 118,84 L 117,83 L 116,83 L 114,81 L 111,81 L 110,82 L 109,82 L 104,87 L 104,88 L 103,89 L 103,90 L 102,91 L 102,92 L 103,93 L 103,94 L 104,95 L 104,96 L 105,97 L 105,99 L 104,100 L 104,101 L 103,102 L 103,103 L 102,104 L 99,104 L 98,105 L 97,105 L 95,107 L 95,119 L 96,120 L 97,120 L 98,121 L 102,121 L 103,122 L 103,123 L 104,124 L 104,125 L 105,126 L 105,127 L 106,128 L 106,129 L 103,132 L 103,134 L 102,135 L 102,136 L 103,137 L 103,138 L 106,141 L 106,142 L 107,142 L 110,145 L 114,145 L 116,143 L 117,143 L 118,142 L 120,142 L 121,143 L 123,143 L 124,144 L 125,144 L 126,145 L 126,150 L 128,152 L 140,152 L 142,150 L 142,146 L 145,143 L 147,143 L 148,142 L 150,142 L 151,143 L 153,143 L 154,144 L 159,144 L 161,142 L 162,142 L 163,141 L 163,140 L 166,137 L 166,135 L 165,134 L 165,133 L 162,130 L 162,128 L 163,127 L 163,126 L 164,125 L 164,124 L 166,122 L 169,122 L 170,121 L 171,121 L 173,119 L 173,118 L 174,117 L 174,113 L 173,112 L 174,111 L 174,109 L 173,108 L 173,107 L 171,105 L 168,105 L 166,103 L 166,102 L 165,101 L 165,100 L 164,99 L 164,98 L 166,96 L 166,95 L 167,94 L 167,93 L 168,92 L 168,91 L 167,90 L 167,89 L 160,82 L 159,82 L 158,81 L 157,81 L 156,82 L 155,82 L 153,84 L 148,84 L 147,83 L 146,83 L 145,82 L 144,82 L 142,80 L 142,76 L 139,73 Z" fill="#E63946" /><path d="M 66,68 L 65,69 L 65,86 L 97,86 L 97,85 L 98,84 L 99,84 L 102,81 L 104,81 L 103,80 L 104,79 L 105,79 L 109,75 L 109,69 L 108,68 Z" fill="#E63946" /><path d="M 101,45 L 100,46 L 99,46 L 99,62 L 101,64 L 110,64 L 111,63 L 111,46 L 110,46 L 109,45 Z" fill="#E63946" /><path d="M 66,45 L 65,46 L 65,63 L 66,64 L 93,64 L 93,45 Z" fill="#E63946" /><path d="M 54,18 L 53,19 L 51,19 L 50,20 L 49,20 L 47,22 L 46,22 L 45,23 L 45,24 L 43,26 L 43,27 L 42,28 L 42,30 L 41,31 L 41,122 L 42,123 L 42,125 L 43,126 L 43,127 L 44,128 L 44,129 L 46,131 L 47,131 L 49,133 L 50,133 L 51,134 L 52,134 L 53,135 L 94,135 L 95,134 L 96,134 L 98,132 L 98,129 L 99,128 L 98,127 L 98,126 L 97,125 L 98,124 L 96,124 L 90,118 L 61,118 L 60,117 L 59,117 L 58,116 L 58,115 L 57,114 L 57,41 L 58,40 L 58,39 L 61,36 L 139,36 L 140,37 L 142,37 L 145,40 L 145,72 L 146,73 L 146,74 L 147,75 L 147,76 L 148,77 L 149,77 L 150,78 L 151,78 L 152,79 L 155,79 L 156,78 L 157,78 L 160,75 L 160,71 L 161,70 L 161,39 L 160,38 L 161,37 L 160,36 L 160,29 L 159,28 L 159,27 L 158,26 L 158,25 L 154,21 L 153,21 L 152,20 L 151,20 L 150,19 L 147,19 L 146,18 L 120,18 L 119,19 L 118,18 Z" fill="#E63946" /></svg>